# xmcd
#
# Track frame offsets:
#	150
#	16910
#	29685
#	50060
#	68067
#	85337
#	98479
#	123435
#	137010
#	149631
#	167286
#
# Disc length: 2389 seconds
#
# Revision: 0
# Processed by: cddbd v1.5.2PL0 Copyright (c) Steve Scherf et al.
# Submitted via: audiograbber 1.83.01
#
DISCID=9309530b
DTITLE=John Landry - Forever Took Too Long
DYEAR=1999
DGENRE=Country
TTITLE0=There You Were
TTITLE1=Long Gone and Forgotten
TTITLE2=Wrong Again
TTITLE3=My Heart Says Yes (But the Hurt Says No)
TTITLE4=Same Old Love
TTITLE5=Bit By Bit
TTITLE6=Forever Took Too Long
TTITLE7=Which Way Is Love?
TTITLE8=Honky Tonk Hell
TTITLE9=Fantasy Island
TTITLE10=The Cowgirl (Your Mama Warned You About)
EXTD=
EXTT0=
EXTT1=
EXTT2=
EXTT3=
EXTT4=
EXTT5=
EXTT6=
EXTT7=
EXTT8=
EXTT9=
EXTT10=
PLAYORDER=
